<svg width="19" height="18" viewBox="0 0 19 18" fill="none" xmlns="http://www.w3.org/2000/svg">
<path fill-rule="evenodd" clip-rule="evenodd" d="M9.93939 18C11.1213 18 12.2916 17.7672 13.3835 17.3149C14.4755 16.8626 15.4676 16.1997 16.3034 15.364C17.1391 14.5282 17.802 13.5361 18.2543 12.4442C18.7066 11.3522 18.9394 10.1819 18.9394 9C18.9394 7.8181 18.7066 6.64778 18.2543 5.55585C17.802 4.46392 17.1391 3.47177 16.3034 2.63604C15.4676 1.80031 14.4755 1.13738 13.3835 0.685084C12.2916 0.232792 11.1213 -1.76116e-08 9.93939 0C7.55244 3.55683e-08 5.26326 0.948211 3.57543 2.63604C1.8876 4.32387 0.939392 6.61305 0.939392 9C0.939392 11.3869 1.8876 13.6761 3.57543 15.364C5.26326 17.0518 7.55244 18 9.93939 18ZM9.70739 12.64L14.7074 6.64L13.1714 5.36L8.87139 10.519L6.64639 8.293L5.23239 9.707L8.23239 12.707L9.00639 13.481L9.70739 12.64Z" fill="#868686"/>
</svg>
